<?xml version="1.0" encoding="utf-8"?>
<!-- Generator: Adobe Illustrator 18.1.1, SVG Export Plug-In . SVG Version: 6.00 Build 0)  -->
<svg version="1.1" xmlns="http://www.w3.org/2000/svg" xmlns:xlink="http://www.w3.org/1999/xlink" x="0px" y="0px"
	 viewBox="0 0 2360 400" enable-background="new 0 0 2360 400" xml:space="preserve">
<g id="Archive" display="none">
	
		<text transform="matrix(1 0 0 1.05 618.52 400)" display="inline" font-family="'Arial-BoldMT'" font-size="190" letter-spacing="-8">BURLINGTON</text>
</g>
<g id="_x22_Burlington_x22_" display="none">
	<g display="inline">
		<path d="M635,254.7578h54.3652c10.7617,0,18.7866,0.4727,24.0747,1.4131c5.2881,0.9424,10.0195,2.9072,14.1943,5.8936
			c4.1748,2.9883,7.6538,6.9648,10.437,11.9326s4.1748,10.5381,4.1748,16.7061c0,6.6895-1.7163,12.8262-5.1489,18.4111
			c-3.4326,5.5859-8.0874,9.7744-13.9624,12.5664c8.2871,2.5322,14.6582,6.8525,19.1113,12.9561
			c4.4531,6.1045,6.6797,13.2812,6.6797,21.5273c0,6.4951-1.438,12.8105-4.314,18.9473s-6.8042,11.041-11.7822,14.709
			c-4.9795,3.6699-11.1182,5.9268-18.4155,6.7705c-4.5776,0.5205-15.6177,0.8447-33.1201,0.9736H635V254.7578z M662.4609,278.5273
			v33.0225h17.998c10.6992,0,17.3486-0.1611,19.9463-0.4873c4.6997-0.584,8.396-2.2891,11.0864-5.1143s4.0356-6.542,4.0356-11.1533
			c0-4.416-1.1597-8.0039-3.479-10.7637s-5.7681-4.4326-10.3442-5.0176c-2.7222-0.3242-10.5459-0.4863-23.4717-0.4863H662.4609z
			 M662.4609,335.3184v38.1855h25.4199c9.895,0,16.1729-0.292,18.833-0.877c4.082-0.7793,7.4058-2.6787,9.9731-5.6992
			c2.5659-3.0195,3.8501-7.0615,3.8501-12.127c0-4.2861-0.9902-7.9219-2.9688-10.9102c-1.98-2.9863-4.8403-5.1631-8.5815-6.5273
			c-3.7427-1.3633-11.8604-2.0449-24.353-2.0449H662.4609z"/>
		<path d="M763.3838,254.7578h27.4609v77.3457c0,12.2734,0.3394,20.2305,1.0205,23.8662c1.1743,5.8447,3.9731,10.5371,8.396,14.0752
			c4.4219,3.541,10.4668,5.3096,18.1367,5.3096c7.793,0,13.668-1.6709,17.627-5.0166c3.957-3.3438,6.3398-7.4521,7.1445-12.3223
			c0.8027-4.8711,1.2051-12.9561,1.2051-24.2559v-79.002h27.4609v75.0078c0,17.1445-0.7422,29.2578-2.2266,36.335
			c-1.4844,7.0791-4.2207,13.0527-8.2109,17.9238c-3.9883,4.8701-9.3223,8.752-16.002,11.6406S829.9956,400,819.2339,400
			c-12.9883,0-22.8389-1.5752-29.5488-4.7246c-6.7114-3.1494-12.0142-7.2402-15.9106-12.2744
			c-3.8965-5.0312-6.4639-10.3086-7.7002-15.8291c-1.7944-8.1826-2.6904-20.2617-2.6904-36.2373V254.7578z"/>
		<path d="M892.3237,397.5645V254.7578h57.7979c14.5332,0,25.0947,1.2832,31.6826,3.8477
			c6.5859,2.5664,11.8584,7.1289,15.8174,13.6875c3.957,6.5596,5.9375,14.0605,5.9375,22.502c0,10.7148-3.001,19.5645-8.999,26.5449
			c-6,6.9814-14.9688,11.3818-26.9043,13.1992c5.9375,3.6377,10.8389,7.6309,14.7051,11.9814
			c3.8643,4.3516,9.0752,12.0791,15.6318,23.1846l16.6064,27.8594h-32.8418l-19.8535-31.0742
			c-7.0508-11.1055-11.875-18.1016-14.4727-20.9922c-2.5977-2.8887-5.3506-4.8711-8.2568-5.9424
			c-2.9082-1.0713-7.5146-1.6074-13.8232-1.6074h-5.5664v59.6162H892.3237z M919.7847,315.1543h20.3174
			c13.1738,0,21.3984-0.585,24.6777-1.7539c3.2773-1.1689,5.8447-3.1816,7.7002-6.0391s2.7832-6.4297,2.7832-10.7158
			c0-4.8057-1.2217-8.6846-3.6641-11.6406c-2.4443-2.9541-5.8916-4.8213-10.3447-5.6006
			c-2.2266-0.3242-8.9062-0.4883-20.0391-0.4883h-21.4307V315.1543z"/>
		<path d="M1021.6353,397.5645V255.9277h27.4609v117.5762h68.2812v24.0605H1021.6353z"/>
		<path d="M1127.5679,397.5645V254.7578h27.4609v142.8066H1127.5679z"/>
		<path d="M1172.9194,397.5645V254.7578h26.7188l55.6641,95.3672v-95.3672h25.5127v142.8066h-27.5537l-54.8291-93.126v93.126
			H1172.9194z"/>
		<path d="M1364.5737,345.0596V320.998h59.1895v56.8896c-5.752,5.8447-14.0869,10.9922-25.0029,15.4395S1376.7876,400,1365.5942,400
			c-14.2266,0-26.626-3.1328-37.2021-9.4004c-10.5762-6.2666-18.5244-15.2285-23.8428-26.8857
			c-5.3203-11.6562-7.9785-24.3369-7.9785-38.04c0-14.8701,2.9688-28.0859,8.9062-39.6465
			c5.9375-11.5586,14.626-20.4229,26.0693-26.5938c8.7207-4.7393,19.5752-7.1104,32.5635-7.1104
			c16.8848,0,30.0732,3.7178,39.5684,11.1533c9.4932,7.4375,15.5996,17.7139,18.3223,30.8311l-27.2754,5.3584
			c-1.918-7.0137-5.5195-12.5508-10.8086-16.6094c-5.2871-4.0586-11.8906-6.0879-19.8066-6.0879
			c-12,0-21.5391,3.9941-28.6211,11.9814s-10.6221,19.8398-10.6221,35.5557c0,16.9492,3.5859,29.6621,10.7617,38.1367
			c7.1738,8.4746,16.5742,12.7119,28.2031,12.7119c5.752,0,11.5186-1.1846,17.3018-3.5557
			c5.7832-2.3691,10.7461-5.2432,14.8906-8.6211v-18.1182H1364.5737z"/>
		<path d="M1471.1558,397.5645V278.916h-40.3564v-24.1582h108.0811v24.1582h-40.2637v118.6484H1471.1558z"/>
		<path d="M1539.0513,327.0381c0-14.5459,2.0713-26.7549,6.2158-36.627c3.0918-7.2725,7.3135-13.7988,12.6641-19.5791
			c5.3486-5.7793,11.209-10.0664,17.5801-12.8594c8.4727-3.7656,18.2441-5.6494,29.3164-5.6494
			c20.0391,0,36.0732,6.5264,48.1035,19.5791c12.0283,13.0537,18.0439,31.2061,18.0439,54.4541
			c0,23.0547-5.9697,41.0928-17.9053,54.1123C1641.1323,393.4902,1625.1753,400,1605.1987,400
			c-20.2246,0-36.3066-6.4785-48.2422-19.4336C1545.019,367.6104,1539.0513,349.7686,1539.0513,327.0381z M1567.3472,326.0645
			c0,16.1699,3.5557,28.4287,10.6689,36.7725c7.1113,8.3457,16.1426,12.5176,27.0898,12.5176s19.9307-4.1396,26.9502-12.4199
			s10.5303-20.7002,10.5303-37.2607c0-16.3652-3.418-28.5732-10.251-36.627c-6.835-8.0508-15.9111-12.0781-27.2295-12.0781
			s-20.4424,4.0762-27.3682,12.2246C1570.8101,297.3438,1567.3472,309.6348,1567.3472,326.0645z"/>
		<path d="M1684.1343,397.5645V254.7578h26.7188l55.6641,95.3672v-95.3672h25.5127v142.8066h-27.5537l-54.8291-93.126v93.126
			H1684.1343z"/>
	</g>
</g>
<g id="_x22_Toronto_x22_">
	<g>
		<path d="M670.3564,397.5645V278.917H630v-24.1582h108.0811v24.1582h-40.2637v118.6475H670.3564z"/>
		<path d="M738.252,327.0381c0-14.5459,2.0713-26.7549,6.2158-36.627c3.0918-7.2725,7.313-13.7988,12.6636-19.5801
			c5.3491-5.7793,11.2095-10.0654,17.5806-12.8584c8.4727-3.7656,18.2446-5.6494,29.3159-5.6494
			c20.0391,0,36.0742,6.5264,48.1035,19.5801c12.0293,13.0527,18.0449,31.2051,18.0449,54.4531
			c0,23.0547-5.9707,41.0928-17.9062,54.1123C840.3325,393.4902,824.3755,400,804.3989,400
			c-20.2241,0-36.3057-6.4785-48.2417-19.4336C744.2197,367.6104,738.252,349.7686,738.252,327.0381z M766.5479,326.0645
			c0,16.1699,3.5557,28.4287,10.6689,36.7725c7.1118,8.3457,16.1426,12.5176,27.0903,12.5176
			c10.9473,0,19.9297-4.1396,26.9492-12.4199s10.5312-20.7002,10.5312-37.2598c0-16.3652-3.418-28.5742-10.252-36.627
			c-6.834-8.0518-15.9102-12.0791-27.2285-12.0791c-11.3188,0-20.4424,4.0752-27.3687,12.2246
			C770.0107,297.3438,766.5479,309.6348,766.5479,326.0645z"/>
		<path d="M883.1489,397.5645V254.7588h57.7979c14.5332,0,25.0947,1.2822,31.6826,3.8477
			c6.5859,2.5654,11.8584,7.1279,15.8174,13.6865c3.957,6.5596,5.9375,14.0605,5.9375,22.502c0,10.7148-3.001,19.5645-8.999,26.5449
			c-6,6.9814-14.9688,11.3818-26.9043,13.1992c5.9375,3.6377,10.8389,7.6318,14.7051,11.9814
			c3.8643,4.3516,9.0752,12.0791,15.6318,23.1846l16.6064,27.8594h-32.8418l-19.8535-31.0742
			c-7.0508-11.1055-11.875-18.1025-14.4727-20.9922s-5.3506-4.8711-8.2568-5.9424c-2.9082-1.0713-7.5146-1.6074-13.8232-1.6074
			h-5.5664v59.6162H883.1489z M910.6099,315.1543h20.3174c13.1738,0,21.3984-0.585,24.6777-1.7539
			c3.2773-1.1689,5.8447-3.1807,7.7002-6.0391c1.8555-2.8574,2.7832-6.4297,2.7832-10.7158c0-4.8047-1.2217-8.6846-3.6641-11.6406
			c-2.4443-2.9541-5.8916-4.8223-10.3447-5.6016c-2.2266-0.3242-8.9062-0.4863-20.0391-0.4863h-21.4307V315.1543z"/>
		<path d="M1006.1519,327.0381c0-14.5459,2.0713-26.7549,6.2158-36.627c3.0918-7.2725,7.3135-13.7988,12.6641-19.5801
			c5.3486-5.7793,11.209-10.0654,17.5801-12.8584c8.4727-3.7656,18.2441-5.6494,29.3164-5.6494
			c20.0391,0,36.0732,6.5264,48.1035,19.5801c12.0283,13.0527,18.0439,31.2051,18.0439,54.4531
			c0,23.0547-5.9697,41.0928-17.9053,54.1123C1108.2329,393.4902,1092.2759,400,1072.2993,400
			c-20.2246,0-36.3066-6.4785-48.2422-19.4336C1012.1196,367.6104,1006.1519,349.7686,1006.1519,327.0381z M1034.4478,326.0645
			c0,16.1699,3.5557,28.4287,10.6689,36.7725c7.1113,8.3457,16.1426,12.5176,27.0898,12.5176s19.9307-4.1396,26.9502-12.4199
			s10.5303-20.7002,10.5303-37.2598c0-16.3652-3.418-28.5742-10.251-36.627c-6.835-8.0518-15.9111-12.0791-27.2295-12.0791
			s-20.4424,4.0752-27.3682,12.2246C1037.9106,297.3438,1034.4478,309.6348,1034.4478,326.0645z"/>
		<path d="M1151.2349,397.5645V254.7588h26.7188l55.6641,95.3662v-95.3662h25.5127v142.8057h-27.5537l-54.8291-93.126v93.126
			H1151.2349z"/>
		<path d="M1310.2339,397.5645V278.917h-40.3564v-24.1582h108.0811v24.1582h-40.2637v118.6475H1310.2339z"/>
		<path d="M1378.1284,327.0381c0-14.5459,2.0713-26.7549,6.2158-36.627c3.0918-7.2725,7.3135-13.7988,12.6641-19.5801
			c5.3486-5.7793,11.209-10.0654,17.5801-12.8584c8.4727-3.7656,18.2441-5.6494,29.3164-5.6494
			c20.0391,0,36.0732,6.5264,48.1035,19.5801c12.0283,13.0527,18.0439,31.2051,18.0439,54.4531
			c0,23.0547-5.9697,41.0928-17.9053,54.1123C1480.2095,393.4902,1464.2524,400,1444.2759,400
			c-20.2246,0-36.3066-6.4785-48.2422-19.4336C1384.0962,367.6104,1378.1284,349.7686,1378.1284,327.0381z M1406.4243,326.0645
			c0,16.1699,3.5557,28.4287,10.6689,36.7725c7.1113,8.3457,16.1426,12.5176,27.0898,12.5176s19.9307-4.1396,26.9502-12.4199
			s10.5303-20.7002,10.5303-37.2598c0-16.3652-3.418-28.5742-10.251-36.627c-6.835-8.0518-15.9111-12.0791-27.2295-12.0791
			s-20.4424,4.0752-27.3682,12.2246C1409.8872,297.3438,1406.4243,309.6348,1406.4243,326.0645z"/>
	</g>
</g>
<g id="Layer_1">
	<path fill-rule="evenodd" clip-rule="evenodd" fill="#231F20" d="M200.0189,0C89.735,0,0,89.7208,0,200.0047
		C0,310.2744,89.735,400,200.0189,400c110.227,0,199.981-89.7256,199.981-199.9953h-56.0054
		c0,79.4061-64.6027,144.004-143.9756,144.004c-79.4154,0-143.9992-64.598-143.9992-144.004
		c0-69.8171,49.9608-128.1047,115.9823-141.1714c0,31.2197,0,76.0326,0,76.0326h56.0244V0H200.0189L200.0189,0z"/>
	<path fill-rule="evenodd" clip-rule="evenodd" fill="#231F20" d="M343.7145,0v134.8659h55.9912c0,0,0-44.813,0-76.0326
		c66.0689,13.0667,116.0204,71.3543,116.0204,141.1714c0,79.4061-64.5838,144.004-143.9898,144.004
		c-79.425,0-144.0229-64.598-144.0229-144.004h-55.9818C171.7315,310.2744,261.4571,400,371.7362,400
		c110.2888,0,199.9951-89.7256,199.9951-199.9953C571.7313,89.7208,482.025,0,371.7362,0H343.7145L343.7145,0z"/>
	<path fill="#231F20" d="M720.8914,125.8306V93.0338h74.5317v71.3142c-6.6959,10.5079-19.673,20.4246-33.1819,26.6304
		C747.6813,197.6685,732.3448,200,717.1185,200c-19.3621,0-36.2363-4.2382-50.623-12.7296
		c-14.3972-8.4875-25.208-20.619-32.4464-36.4088c-7.2382-15.7864-10.8556-32.9597-10.8556-51.5196
		c0-20.1345,4.0389-38.04,12.1133-53.6954c8.0779-15.6555,19.901-27.6633,35.4728-36.0198C682.644,3.2088,697.4075,0,715.0834,0
		c22.9656,0,40.9107,5.0203,53.8256,15.0716c12.9221,10.0442,21.2242,23.9306,24.9352,41.6415l-37.1761,7.3271
		c-2.6053-9.4853-7.5079-16.9643-14.6875-22.4517c-7.1933-5.4874-16.1659-8.2364-26.9284-8.2364
		c-16.3077,0-29.2742,5.4131-38.9035,16.2427c-9.619,10.8156-14.4353,26.8674-14.4353,48.162
		c0,22.9649,4.8786,40.1912,14.6494,51.6718c9.7604,11.4772,22.5544,17.2228,38.3785,17.2228
		c7.8256,0,15.4438-0.8775,23.4701-3.6548c7.8082-2.703,15.6476-6.8139,20.3396-10.9501v-26.216H720.8914L720.8914,125.8306z"/>
	<polygon fill="#231F20" points="815.2654,196.2781 815.2654,3.0744 945.8963,3.0744 945.8963,35.7297 850.9866,35.7297 
		850.9866,84.0191 939.4251,84.0191 939.4251,116.6672 850.9866,116.6672 850.9866,163.584 949.303,163.584 949.303,196.2781 
		815.2654,196.2781 	"/>
	<path fill="#231F20" d="M1002.8824,84.6806h26.1773c16.9291,0,27.5182-0.7641,31.7389-2.335
		c4.2419-1.6097,7.5323-4.3268,9.9417-8.1832c2.3845-3.8457,3.584-8.6785,3.584-14.4773c0-6.5097-1.5886-11.7706-4.7444-15.7332
		c-3.1453-3.9909-7.5677-6.5027-13.2992-7.5818c-2.8693-0.414-11.4701-0.6404-25.7952-0.6404h-27.6031V84.6806L1002.8824,84.6806z
		 M967.1828,196.2781V3.0744h74.7302c18.8113,0,32.475,1.7478,41.0013,5.1867c8.5159,3.4813,15.3369,9.6621,20.4423,18.5212
		c5.1335,8.9014,7.6986,19.0306,7.6986,30.4829c0,14.4914-3.8741,26.4391-11.5408,35.8995
		c-7.7163,9.4463-19.2041,15.3901-34.5056,17.8526c7.6313,4.9284,13.9041,10.3344,18.8395,16.2108
		c4.9673,5.8907,11.6187,16.3101,20.0426,31.325l21.4469,37.7252h-42.1051l-25.6041-42.2147
		c-9.1384-14.9373-15.4183-24.366-18.8005-28.2577c-3.4036-3.8882-6.9451-6.5416-10.7307-7.9921
		c-3.7784-1.4648-9.7682-2.1688-17.9833-2.1688h-7.2316v80.6332H967.1828L967.1828,196.2781z"/>
	<path fill="#231F20" d="M1173.6167,84.6806h26.1525c16.9574,0,27.5499-0.7641,31.7743-2.335
		c4.2208-1.6097,7.5217-4.3268,9.8992-8.1832c2.42-3.8457,3.5911-8.6785,3.5911-14.4773c0-6.5097-1.5461-11.7706-4.6948-15.7332
		c-3.1736-3.9909-7.6031-6.5027-13.3594-7.5818c-2.8551-0.414-11.4418-0.6404-25.7739-0.6404h-27.5889V84.6806L1173.6167,84.6806z
		 M1137.894,196.2781V3.0744h74.7639c18.79,0,32.4395,1.7478,40.9552,5.1867c8.5442,3.4813,15.376,9.6621,20.4742,18.5212
		c5.1086,8.9014,7.6985,19.0306,7.6985,30.4829c0,14.4914-3.874,26.4391-11.5726,35.8995
		c-7.6597,9.4463-19.1792,15.3901-34.4631,17.8526c7.5924,4.9284,13.8722,10.3344,18.8325,16.2108
		c4.9248,5.8907,11.6079,16.3101,20.0247,31.325l21.4401,37.7252h-42.0769l-25.604-42.2147
		c-9.181-14.9373-15.4397-24.366-18.8361-28.2577c-3.3752-3.8882-6.9309-6.5416-10.7341-7.9921
		c-3.7644-1.4648-9.7471-2.1688-17.948-2.1688h-7.2316v80.6332H1137.894L1137.894,196.2781z"/>
	<polygon fill="#231F20" points="1340.498,196.2781 1340.498,114.9442 1276.0508,3.0744 1317.7385,3.0744 1359.2032,79.625 
		1399.7234,3.0744 1440.6361,3.0744 1376.2242,115.2203 1376.2242,196.2781 1340.498,196.2781 	"/>
	<polygon fill="#231F20" points="1530.2808,196.2781 1493.663,3.1912 1530.3726,3.1912 1551.9578,135.7794 1584.1989,3.0744 
		1627.0011,3.0744 1657.392,138.0258 1684.3335,3.0744 1720.1482,3.0744 1677.8096,196.2781 1638.9771,196.2781 1604.7084,51.8343 
		1569.6404,196.2781 1530.2808,196.2781 	"/>
	<polygon fill="#231F20" points="1732.6018,196.2781 1732.6018,3.0744 1863.2085,3.0744 1863.2085,35.7297 1768.2926,35.7297 
		1768.2926,84.0191 1856.7484,84.0191 1856.7484,116.6672 1768.2926,116.6672 1768.2926,163.584 1866.6085,163.584 
		1866.6085,196.2781 1732.6018,196.2781 	"/>
	<path fill="#231F20" d="M1920.1591,111.5761v52.0078h32.9487c12.811,0,20.9235-0.3964,24.373-1.1534
		c5.2573-1.0931,9.5631-3.6758,12.8922-7.7692c3.3185-4.1216,4.9955-9.6445,4.9955-16.547c0-5.8517-1.2488-10.7977-3.8492-14.8735
		c-2.5685-4.0614-6.2444-7.0371-11.1162-8.898c-4.8186-1.8469-15.3477-2.7667-31.5231-2.7667H1920.1591L1920.1591,111.5761z
		 M1920.1591,35.0468v44.5356h23.3505c13.819,0,22.4587-0.205,25.8022-0.6545c6.1028-0.789,10.8542-3.0674,14.3673-6.9025
		c3.4885-3.8034,5.2081-8.8238,5.2081-15.0575c0-5.9365-1.4719-10.773-4.5182-14.5056c-2.9504-3.7148-7.4366-6.0075-13.3521-6.754
		c-3.5698-0.4316-13.6885-0.6616-30.3947-0.6616H1920.1591L1920.1591,35.0468z M1884.5034,3.0744h70.483
		c13.9644,0,24.373,0.6192,31.2472,1.8893c6.8566,1.2631,12.97,3.9165,18.3761,7.9463c5.4449,4.0155,9.9771,9.3968,13.5574,16.0551
		c3.6405,6.7434,5.4379,14.2085,5.4379,22.5157c0,9.0253-2.2395,17.2792-6.6902,24.8115
		c-4.4899,7.5323-10.5255,13.1435-18.1746,16.9361c10.72,3.4213,18.9421,9.3014,24.7268,17.5838
		c5.7668,8.2786,8.6432,18.0506,8.6432,29.2127c0,8.8519-1.8716,17.3996-5.6254,25.7386
		c-3.6971,8.3283-8.8025,14.9904-15.2485,19.9681c-6.4426,4.9887-14.4031,8.0383-23.8705,9.2305
		c-5.9261,0.6794-20.2159,1.1039-42.9154,1.3161h-59.947V3.0744L1884.5034,3.0744z"/>
	<polygon fill="#231F20" points="2049.9451,196.2781 2049.9451,3.0744 2180.573,3.0744 2180.573,35.7297 2085.6641,35.7297 
		2085.6641,84.0191 2174.0845,84.0191 2174.0845,116.6672 2085.6641,116.6672 2085.6641,163.584 2183.98,163.584 2183.98,196.2781 
		2049.9451,196.2781 	"/>
	<path fill="#231F20" d="M2237.5659,84.6806h26.1772c16.9221,0,27.5427-0.7641,31.7175-2.335
		c4.2422-1.6097,7.5574-4.3268,9.9558-8.1832c2.3777-3.8457,3.6018-8.6785,3.6018-14.4773c0-6.5097-1.592-11.7706-4.7339-15.7332
		c-3.1521-3.9909-7.5886-6.5027-13.3096-7.5818c-2.9011-0.414-11.4558-0.6404-25.8164-0.6404h-27.5925V84.6806L2237.5659,84.6806z
		 M2201.8503,196.2781V3.0744h74.771c18.7688,0,32.45,1.7478,40.9692,5.1867c8.4878,3.4813,15.3406,9.6621,20.4565,18.5212
		c5.1265,8.9014,7.688,19.0306,7.688,30.4829c0,14.4914-3.8352,26.4391-11.5444,35.8995
		c-7.7339,9.4463-19.1685,15.3901-34.509,17.8526c7.6348,4.9284,13.9148,10.3344,18.8503,16.2108
		c4.9673,5.8907,11.6716,16.3101,20.0388,31.325L2360,196.2781h-42.0837l-25.5864-42.2147
		c-9.1917-14.9373-15.4502-24.366-18.8325-28.2577c-3.3577-3.8882-6.9485-6.5416-10.7024-7.9921
		c-3.8066-1.4648-9.8035-2.1688-18.001-2.1688h-7.228v80.6332H2201.8503L2201.8503,196.2781z"/>
</g>
</svg>
