<svg xmlns="http://www.w3.org/2000/svg" width="540" height="48" viewBox="0 0 540 48">
  <defs>
    <style>
      .cls-1 {
        fill: #20242f;
        fill-rule: evenodd;
      }
    </style>
  </defs>
  <path id="GERRY_WEBER_TORONTO_copy" data-name="GERRY WEBER TORONTO copy" class="cls-1" d="M182.827,16.49V19.4a9.109,9.109,0,0,1-2.332,1.383,6.953,6.953,0,0,1-2.71.57,5.453,5.453,0,0,1-4.417-2.039q-1.686-2.039-1.686-6.117a8.5,8.5,0,0,1,1.664-5.7,5.626,5.626,0,0,1,4.483-1.922,4.674,4.674,0,0,1,4.795,3.641l4.272-.859a8.175,8.175,0,0,0-2.87-4.945,9.656,9.656,0,0,0-6.2-1.789,10.375,10.375,0,0,0-5.1,1.141,9.753,9.753,0,0,0-4.083,4.266,14,14,0,0,0-1.4,6.359,14.805,14.805,0,0,0,1.25,6.1,9.349,9.349,0,0,0,3.734,4.313,11.012,11.012,0,0,0,5.827,1.508,13.383,13.383,0,0,0,5.195-1.07,11.53,11.53,0,0,0,3.916-2.476V12.63H177.9V16.49h4.926Zm23.027,8.422V21.052h-11.9V14.818h10.695V10.959H193.953V5.88h11.494V2.005h-15.8V24.912h16.2Zm6.475,0V15.349H213.2a6.625,6.625,0,0,1,2.165.258,3.306,3.306,0,0,1,1.293.953,32.249,32.249,0,0,1,2.267,3.367l3.11,4.984h5.144l-2.6-4.469a26.21,26.21,0,0,0-2.449-3.719,10.171,10.171,0,0,0-2.3-1.922,6.591,6.591,0,0,0,4.214-2.117,6.4,6.4,0,0,0,1.41-4.258,6.985,6.985,0,0,0-.93-3.609,5,5,0,0,0-2.478-2.2,14.48,14.48,0,0,0-4.962-.617h-9.053V24.912h4.3Zm0-19.031h3.357q2.614,0,3.138.078a2.582,2.582,0,0,1,1.621.9,2.885,2.885,0,0,1,.573,1.867,3.157,3.157,0,0,1-.435,1.719,2.341,2.341,0,0,1-1.207.969,15.3,15.3,0,0,1-3.865.281h-3.182V5.88Zm20,19.031V15.349H233.2a6.628,6.628,0,0,1,2.166.258,3.306,3.306,0,0,1,1.293.953,32.417,32.417,0,0,1,2.267,3.367l3.109,4.984h5.144l-2.6-4.469a26.226,26.226,0,0,0-2.448-3.719,10.193,10.193,0,0,0-2.3-1.922,6.591,6.591,0,0,0,4.214-2.117,6.4,6.4,0,0,0,1.409-4.258,6.975,6.975,0,0,0-.93-3.609,5,5,0,0,0-2.477-2.2,14.482,14.482,0,0,0-4.963-.617h-9.053V24.912h4.3Zm0-19.031h3.356q2.616,0,3.139.078a2.582,2.582,0,0,1,1.62.9,2.88,2.88,0,0,1,.574,1.867,3.148,3.148,0,0,1-.436,1.719,2.335,2.335,0,0,1-1.206.969,15.31,15.31,0,0,1-3.865.281h-3.182V5.88ZM256.8,24.912V15.3l7.833-13.3h-4.956l-4.911,9.063L249.75,2.005h-5.043l7.8,13.266v9.641H256.8Zm22.41,0,4.229-17.125,4.243,17.125h4.563l5.173-22.906h-4.33l-3.27,16-3.734-16h-5.115L277.071,17.74,273.86,2.005h-4.4l5.086,22.906h4.664Zm35.117,0V21.052h-11.9V14.818h10.695V10.959H302.423V5.88h11.494V2.005h-15.8V24.912h16.2Zm2.173,0h7.252q4.111-.031,5.187-0.156a5.829,5.829,0,0,0,2.885-1.086,6.033,6.033,0,0,0,1.845-2.359,7.222,7.222,0,0,0,.676-3.039,5.8,5.8,0,0,0-1.046-3.453A5.6,5.6,0,0,0,330.3,12.74a5.12,5.12,0,0,0,2.187-2.016,5.628,5.628,0,0,0,.807-2.953,5.49,5.49,0,0,0-.654-2.68,5.742,5.742,0,0,0-1.635-1.914,5.328,5.328,0,0,0-2.223-.945,22.934,22.934,0,0,0-3.771-.227H316.5V24.912Zm6.772-19.094q3.037,0,3.676.078a2.4,2.4,0,0,1,1.621.8,2.636,2.636,0,0,1,.545,1.727,2.523,2.523,0,0,1-.632,1.789,2.759,2.759,0,0,1-1.737.82q-0.611.078-3.124,0.078H320.8v-5.3h2.47Zm1,9.109a13.621,13.621,0,0,1,3.814.328A2.649,2.649,0,0,1,329.43,16.3a3.154,3.154,0,0,1,.465,1.75,2.95,2.95,0,0,1-.6,1.945,2.618,2.618,0,0,1-1.562.914,18.1,18.1,0,0,1-2.95.141H320.8V14.927h3.473Zm28.417,9.984V21.052h-11.9V14.818h10.695V10.959H340.788V5.88h11.494V2.005H336.487V24.912h16.2Zm6.475,0V15.349h0.872a6.621,6.621,0,0,1,2.165.258,3.3,3.3,0,0,1,1.293.953,32.249,32.249,0,0,1,2.267,3.367l3.11,4.984h5.144l-2.6-4.469a26.121,26.121,0,0,0-2.449-3.719,10.171,10.171,0,0,0-2.3-1.922,6.586,6.586,0,0,0,4.214-2.117,6.4,6.4,0,0,0,1.41-4.258,6.975,6.975,0,0,0-.93-3.609,4.993,4.993,0,0,0-2.478-2.2,14.476,14.476,0,0,0-4.962-.617h-9.053V24.912h4.3Zm0-19.031h3.357q2.616,0,3.139.078a2.582,2.582,0,0,1,1.62.9,2.886,2.886,0,0,1,.574,1.867,3.157,3.157,0,0,1-.436,1.719,2.343,2.343,0,0,1-1.206.969,15.32,15.32,0,0,1-3.866.281h-3.182V5.88ZM226.4,45.912V31.638h4.73V28.732h-12.7v2.906h4.741V45.912H226.4Zm6.742-2.045a7.971,7.971,0,0,0,11.291-.012,9.415,9.415,0,0,0,2.1-6.51,9.446,9.446,0,0,0-2.12-6.551,7.229,7.229,0,0,0-5.651-2.355,8.23,8.23,0,0,0-3.443.68,6.237,6.237,0,0,0-2.066,1.547,8.147,8.147,0,0,0-1.487,2.355,11.651,11.651,0,0,0-.731,4.406A9.281,9.281,0,0,0,233.145,43.867Zm2.441-10.992A4.249,4.249,0,0,1,242,32.857a6.8,6.8,0,0,1,1.2,4.406,6.905,6.905,0,0,1-1.237,4.482,4.108,4.108,0,0,1-6.348-.012,6.764,6.764,0,0,1-1.254-4.424A6.828,6.828,0,0,1,235.586,32.875Zm15.591,13.037V38.74h0.654a4.965,4.965,0,0,1,1.624.193,2.473,2.473,0,0,1,.97.715,24.258,24.258,0,0,1,1.7,2.525l2.333,3.738h3.858l-1.951-3.352a19.608,19.608,0,0,0-1.837-2.789A7.62,7.62,0,0,0,256.8,38.33a4.944,4.944,0,0,0,3.161-1.588,4.8,4.8,0,0,0,1.057-3.193,5.232,5.232,0,0,0-.7-2.707,3.743,3.743,0,0,0-1.858-1.646,10.86,10.86,0,0,0-3.722-.463h-6.79v17.18h3.226Zm0-14.273H253.7q1.962,0,2.354.059a1.935,1.935,0,0,1,1.215.674,2.161,2.161,0,0,1,.431,1.4,2.364,2.364,0,0,1-.327,1.289,1.756,1.756,0,0,1-.9.727,11.483,11.483,0,0,1-2.9.211h-2.387V31.638Zm13.216,12.229a7.971,7.971,0,0,0,11.291-.012,9.415,9.415,0,0,0,2.1-6.51,9.446,9.446,0,0,0-2.12-6.551,7.229,7.229,0,0,0-5.651-2.355,8.23,8.23,0,0,0-3.443.68,6.237,6.237,0,0,0-2.066,1.547,8.147,8.147,0,0,0-1.487,2.355,11.651,11.651,0,0,0-.731,4.406A9.281,9.281,0,0,0,264.393,43.867Zm2.441-10.992a4.249,4.249,0,0,1,6.414-.018,6.8,6.8,0,0,1,1.2,4.406,6.905,6.905,0,0,1-1.237,4.482,4.108,4.108,0,0,1-6.348-.012,6.764,6.764,0,0,1-1.254-4.424A6.828,6.828,0,0,1,266.834,32.875Zm15.384,13.037v-11.2l6.441,11.2H291.9V28.732h-3V40.2L282.36,28.732h-3.139v17.18h3Zm18.8,0V31.638h4.73V28.732h-12.7v2.906h4.741V45.912h3.226Zm6.742-2.045a7.97,7.97,0,0,0,11.29-.012,9.416,9.416,0,0,0,2.1-6.51,9.446,9.446,0,0,0-2.12-6.551,7.23,7.23,0,0,0-5.651-2.355,8.235,8.235,0,0,0-3.444.68,6.234,6.234,0,0,0-2.065,1.547,8.15,8.15,0,0,0-1.488,2.355,11.672,11.672,0,0,0-.73,4.406A9.276,9.276,0,0,0,307.756,43.867ZM310.2,32.875a4.249,4.249,0,0,1,6.414-.018,6.8,6.8,0,0,1,1.2,4.406,6.911,6.911,0,0,1-1.237,4.482,4.109,4.109,0,0,1-6.349-.012,6.77,6.77,0,0,1-1.253-4.424A6.828,6.828,0,0,1,310.2,32.875Z"/>
</svg>
